<?xml version="1.0" standalone="no"?>
<svg xmlns:xlink="http://www.w3.org/1999/xlink" id="wave" style="transform:rotate(0deg); transition: 0.3s" viewBox="0 0 1440 490" version="1.1" xmlns="http://www.w3.org/2000/svg"><defs><linearGradient id="sw-gradient-0" x1="0" x2="0" y1="1" y2="0"><stop stop-color="rgba(254, 254, 254, 1)" offset="0%"/><stop stop-color="rgba(43, 122, 139, 1)" offset="100%"/></linearGradient></defs><path style="transform:translate(0, 0px); opacity:1" fill="url(#sw-gradient-0)" d="M0,294L24,261.3C48,229,96,163,144,130.7C192,98,240,98,288,89.8C336,82,384,65,432,106.2C480,147,528,245,576,253.2C624,261,672,180,720,163.3C768,147,816,196,864,220.5C912,245,960,245,1008,261.3C1056,278,1104,310,1152,310.3C1200,310,1248,278,1296,294C1344,310,1392,376,1440,383.8C1488,392,1536,343,1584,285.8C1632,229,1680,163,1728,179.7C1776,196,1824,294,1872,326.7C1920,359,1968,327,2016,326.7C2064,327,2112,359,2160,351.2C2208,343,2256,294,2304,269.5C2352,245,2400,245,2448,220.5C2496,196,2544,147,2592,130.7C2640,114,2688,131,2736,179.7C2784,229,2832,310,2880,334.8C2928,359,2976,327,3024,269.5C3072,212,3120,131,3168,81.7C3216,33,3264,16,3312,81.7C3360,147,3408,294,3432,367.5L3456,441L3456,490L3432,490C3408,490,3360,490,3312,490C3264,490,3216,490,3168,490C3120,490,3072,490,3024,490C2976,490,2928,490,2880,490C2832,490,2784,490,2736,490C2688,490,2640,490,2592,490C2544,490,2496,490,2448,490C2400,490,2352,490,2304,490C2256,490,2208,490,2160,490C2112,490,2064,490,2016,490C1968,490,1920,490,1872,490C1824,490,1776,490,1728,490C1680,490,1632,490,1584,490C1536,490,1488,490,1440,490C1392,490,1344,490,1296,490C1248,490,1200,490,1152,490C1104,490,1056,490,1008,490C960,490,912,490,864,490C816,490,768,490,720,490C672,490,624,490,576,490C528,490,480,490,432,490C384,490,336,490,288,490C240,490,192,490,144,490C96,490,48,490,24,490L0,490Z"/></svg>